<svg width="20" height="20" viewBox="0 0 20 20" xmlns="http://www.w3.org/2000/svg">
    <path d="M2 8.01826C2 5.24977 4.23554 2.99997 7 2.99997C8.12562 2.99997 9.16482 3.37392 10 4.00335C10.8352 3.37392 11.8744 2.99997 13 2.99997C15.7645 2.99997 18 5.24977 18 8.01826C18 9.05219 17.4934 10.057 16.9338 10.8757C16.3618 11.7125 15.66 12.4605 15.1277 12.9952L11.9457 16.1909C10.8715 17.2697 9.12852 17.2697 8.05432 16.1909L4.87234 12.9952C4.33112 12.4516 3.62897 11.7033 3.059 10.8683C2.50074 10.0505 2 9.05091 2 8.01826Z" />
</svg>
