<svg width="20" height="20" viewBox="0 0 20 20"  fill="#fff" xmlns="http://www.w3.org/2000/svg">
<path  d="M8.68185 3.50002C5.82001 3.50002 3.50003 5.81999 3.50003 8.68183C3.50003 11.5437 5.82001 13.8637 8.68185 13.8637C11.5437 13.8637 13.8637 11.5437 13.8637 8.68183C13.8637 5.81999 11.5437 3.50002 8.68185 3.50002ZM2.00003 8.68183C2.00003 4.99157 4.99158 2.00002 8.68185 2.00002C12.3721 2.00002 15.3637 4.99157 15.3637 8.68183C15.3637 10.2568 14.8188 11.7044 13.9073 12.8466L17.7804 16.7197C18.0732 17.0126 18.0732 17.4874 17.7804 17.7803C17.4875 18.0732 17.0126 18.0732 16.7197 17.7803L12.8466 13.9072C11.7044 14.8188 10.2568 15.3637 8.68185 15.3637C4.99158 15.3637 2.00003 12.3721 2.00003 8.68183Z" />
</svg>
